<svg width="218" height="218" viewBox="0 0 218 218" fill="none" xmlns="http://www.w3.org/2000/svg">
<circle cx="109" cy="109" r="109" fill="#68A67D"/>
<path d="M189.875 74.4071C189.372 73.7228 188.971 72.9814 188.553 72.2444C188.342 71.8759 188.123 71.514 187.913 71.1455C187.678 70.7274 187.454 70.3017 187.233 69.8793C186.834 69.1225 186.455 68.358 186.037 67.6121C185.578 66.7926 185.133 65.9665 184.665 65.1514C183.73 63.5299 182.785 61.9184 181.885 60.2771C181.002 58.6689 180.152 57.0419 179.258 55.4403C178.78 54.5856 178.323 53.7187 177.876 52.8464C177.799 52.6968 177.72 52.5461 177.642 52.3965C178.005 51.7398 178.358 51.0775 178.729 50.4241C179.695 48.7279 180.751 47.0844 181.645 45.3475C181.747 45.1539 181.844 44.957 181.942 44.7612C182.055 44.5323 182.103 44.2991 182.035 44.0461C181.97 43.8151 181.816 43.6149 181.609 43.4928C181.472 43.4125 181.308 43.3729 181.142 43.3729C180.819 43.3729 180.491 43.5258 180.345 43.8272C179.898 44.7579 179.428 45.6753 178.93 46.5806C178.482 47.3979 178.015 48.2065 177.563 49.0238C177.52 49.1019 177.477 49.18 177.435 49.2581C177.425 48.8654 177.411 48.4727 177.418 48.0789C177.442 46.6928 177.473 45.3068 177.464 43.9174C177.463 43.418 177.052 43 176.549 43C176.053 43 175.625 43.418 175.632 43.9174C175.652 45.2881 175.665 46.6576 175.682 48.0261C175.684 48.212 175.7 48.3979 175.703 48.5849C175.59 48.3583 175.48 48.1295 175.364 47.9039C174.927 47.0492 174.496 46.1912 174.075 45.3255C173.92 45.012 173.766 44.6952 173.61 44.3816C173.459 44.0857 173.137 43.9306 172.816 43.9306C172.654 43.9306 172.491 43.9702 172.352 44.0516C171.907 44.3134 171.791 44.8646 172.024 45.309C172.463 46.1571 172.901 47.0074 173.364 47.8412C173.818 48.6586 174.277 49.4715 174.701 50.3064C175.046 50.9829 175.39 51.6595 175.737 52.336C175.422 52.908 175.102 53.4756 174.792 54.0509C174.364 54.8463 173.966 55.6548 173.599 56.4809C173.22 57.329 172.821 58.1662 172.389 58.9901C171.948 59.8382 171.505 60.6841 171.078 61.54C170.667 62.3639 170.256 63.19 169.831 64.0073C169.396 64.8489 168.952 65.686 168.484 66.5077C168.03 67.3096 167.567 68.105 167.115 68.908C166.687 69.667 166.3 70.4447 165.87 71.2005C165.659 71.5712 165.455 71.9419 165.259 72.3203C165.068 72.691 164.895 73.0683 164.709 73.439C164.64 73.5787 164.563 73.7118 164.481 73.8427C164.385 73.9901 164.364 74.1584 164.373 74.3257C164.153 74.5017 164 74.7613 164 75.0561C164 75.5709 164.426 75.9977 164.939 75.9999C165.911 76.0021 166.882 75.9647 167.855 75.9581C168.368 75.9559 168.88 75.9581 169.396 75.9581C169.846 75.9603 170.296 75.9603 170.747 75.9581C171.723 75.9559 172.701 75.9625 173.678 75.9339C174.586 75.9053 175.494 75.8987 176.402 75.8877C177.352 75.8767 178.305 75.8811 179.255 75.8591C180.236 75.8371 181.213 75.7997 182.192 75.7876C182.692 75.781 183.194 75.7898 183.694 75.7986C184.093 75.8074 184.49 75.814 184.888 75.8118C185.797 75.8096 186.708 75.8096 187.617 75.8162C188.067 75.8184 188.517 75.8118 188.965 75.8074C189.044 75.8074 189.116 75.7799 189.189 75.7612C189.213 75.759 189.235 75.7513 189.259 75.7469C189.288 75.737 189.318 75.7304 189.345 75.7172C189.415 75.6963 189.489 75.6842 189.553 75.6457C189.755 75.528 189.906 75.3322 189.968 75.1056C190.025 74.8911 190.012 74.5941 189.875 74.4071ZM166.37 74.1331C166.358 74.1331 166.346 74.1331 166.334 74.1331C166.406 73.9736 166.476 73.813 166.554 73.6568C166.75 73.2641 166.95 72.8747 167.159 72.4886C167.576 71.7175 167.992 70.9431 168.396 70.1653C168.812 69.3678 169.263 68.5868 169.711 67.8069C170.179 66.9917 170.631 66.1656 171.074 65.3351C171.942 63.7136 172.72 62.0416 173.566 60.4069C174.018 59.5324 174.463 58.659 174.87 57.7646C175.068 57.3312 175.255 56.8945 175.451 56.4633C175.573 56.196 175.714 55.9364 175.851 55.6757C175.85 55.9617 175.848 56.2466 175.85 56.5326C175.859 57.4302 175.861 58.329 175.841 59.2288C175.804 61.0923 175.813 62.9623 175.628 64.8203C175.615 64.9435 175.601 65.0645 175.586 65.1855C175.421 66.2173 175.111 67.1996 174.723 68.1666C174.301 69.1357 173.839 70.085 173.344 71.0201C173.105 71.4711 172.826 71.8968 172.573 72.339C172.316 72.7812 172.103 73.252 171.822 73.6799C171.727 73.8262 171.705 73.9923 171.711 74.1585C169.932 74.153 168.151 74.1573 166.37 74.1331ZM177.709 74.0869C176.774 74.0869 175.839 74.0825 174.904 74.1001C174.486 74.1078 174.068 74.1221 173.65 74.1342C173.954 73.5259 174.254 72.9154 174.567 72.3126C174.976 71.5305 175.391 70.7494 175.77 69.9497C176.038 69.3843 176.282 68.8079 176.51 68.2249C176.862 69.1269 177.25 70.0146 177.707 70.8749C178.081 71.5789 178.478 72.2697 178.874 72.9583C179.087 73.3257 179.297 73.6953 179.513 74.0616C178.91 74.0726 178.31 74.088 177.709 74.0869ZM183.342 73.989C182.734 73.9945 182.126 74.011 181.52 74.0253C181.281 73.626 181.029 73.2399 180.796 72.8373C180.524 72.3665 180.255 71.8935 179.983 71.4249C179.453 70.5096 178.979 69.5768 178.558 68.6088C178.147 67.5439 177.805 66.4593 177.465 65.3703C177.433 65.2691 177.387 65.1756 177.328 65.0931C177.359 64.8588 177.402 64.6267 177.421 64.3891C177.495 63.5233 177.508 62.6565 177.504 61.7886C177.501 60.8975 177.537 60.0054 177.561 59.1166C177.585 58.2278 177.607 57.3378 177.639 56.449C177.644 56.3005 177.651 56.152 177.657 56.0035C177.984 56.5887 178.313 57.1717 178.629 57.7625C179.066 58.5798 179.499 59.3971 179.943 60.2122C180.838 61.8579 181.766 63.4859 182.691 65.1184C183.587 66.7035 184.479 68.2964 185.292 69.9266C185.697 70.7351 186.1 71.5415 186.553 72.3269C186.87 72.8747 187.174 73.4313 187.483 73.9846C187.022 73.9824 186.562 73.978 186.103 73.978C185.181 73.9758 184.261 73.9802 183.342 73.989Z" fill="#F5EFE7"/>
<path d="M101.773 102.318H90.4091C90.2576 101.152 89.947 100.098 89.4773 99.1591C89.0076 98.2197 88.3864 97.4167 87.6136 96.75C86.8409 96.0833 85.9242 95.5758 84.8636 95.2273C83.8182 94.8636 82.6591 94.6818 81.3864 94.6818C79.1288 94.6818 77.1818 95.2348 75.5455 96.3409C73.9242 97.447 72.6742 99.0455 71.7955 101.136C70.9318 103.227 70.5 105.758 70.5 108.727C70.5 111.818 70.9394 114.409 71.8182 116.5C72.7121 118.576 73.9621 120.144 75.5682 121.205C77.1894 122.25 79.1061 122.773 81.3182 122.773C82.5606 122.773 83.6894 122.614 84.7045 122.295C85.7348 121.977 86.6364 121.515 87.4091 120.909C88.197 120.288 88.8409 119.538 89.3409 118.659C89.8561 117.765 90.2121 116.758 90.4091 115.636L101.773 115.705C101.576 117.765 100.977 119.795 99.9773 121.795C98.9924 123.795 97.6364 125.621 95.9091 127.273C94.1818 128.909 92.0758 130.212 89.5909 131.182C87.1212 132.152 84.2879 132.636 81.0909 132.636C76.8788 132.636 73.1061 131.712 69.7727 129.864C66.4545 128 63.8333 125.288 61.9091 121.727C59.9848 118.167 59.0227 113.833 59.0227 108.727C59.0227 103.606 60 99.2652 61.9545 95.7045C63.9091 92.1439 66.553 89.4394 69.8864 87.5909C73.2197 85.7424 76.9545 84.8182 81.0909 84.8182C83.9091 84.8182 86.5152 85.2121 88.9091 86C91.303 86.7727 93.4091 87.9091 95.2273 89.4091C97.0455 90.8939 98.5227 92.7197 99.6591 94.8864C100.795 97.053 101.5 99.5303 101.773 102.318ZM118.778 85.4545L129.188 119.545H129.574L139.983 85.4545H152.574L136.869 132H121.892L106.188 85.4545H118.778ZM185.381 100.659C185.123 99.7045 184.744 98.8636 184.244 98.1364C183.744 97.3939 183.131 96.7652 182.403 96.25C181.676 95.7348 180.843 95.3485 179.903 95.0909C178.964 94.8182 177.934 94.6818 176.812 94.6818C174.555 94.6818 172.6 95.2273 170.949 96.3182C169.312 97.4091 168.047 99 167.153 101.091C166.259 103.167 165.812 105.689 165.812 108.659C165.812 111.644 166.244 114.189 167.108 116.295C167.972 118.402 169.222 120.008 170.858 121.114C172.494 122.22 174.479 122.773 176.812 122.773C178.873 122.773 180.616 122.439 182.04 121.773C183.479 121.091 184.57 120.129 185.312 118.886C186.055 117.644 186.426 116.182 186.426 114.5L188.517 114.75H177.199V106.545H197.267V112.705C197.267 116.871 196.381 120.439 194.608 123.409C192.85 126.379 190.426 128.659 187.335 130.25C184.259 131.841 180.722 132.636 176.722 132.636C172.282 132.636 168.381 131.674 165.017 129.75C161.653 127.826 159.032 125.083 157.153 121.523C155.275 117.947 154.335 113.705 154.335 108.795C154.335 104.977 154.903 101.591 156.04 98.6364C157.176 95.6667 158.759 93.1515 160.79 91.0909C162.835 89.0303 165.199 87.4697 167.881 86.4091C170.578 85.3485 173.479 84.8182 176.585 84.8182C179.282 84.8182 181.79 85.2045 184.108 85.9773C186.441 86.75 188.502 87.8409 190.29 89.25C192.093 90.6591 193.555 92.3333 194.676 94.2727C195.797 96.2121 196.494 98.3409 196.767 100.659H185.381Z" fill="#FFFEF2"/>
</svg>
