<svg width="213" height="213" viewBox="0 0 213 213" fill="none" xmlns="http://www.w3.org/2000/svg">
<circle cx="106.5" cy="106.5" r="106.5" fill="#E6F2EA"/>
<path d="M37.7028 154.119H176.297C177.948 154.119 178.92 152.266 177.983 150.907L108.685 39.2553C107.871 38.0764 106.129 38.0764 105.315 39.2553L36.0172 150.908C35.0797 152.266 36.052 154.119 37.7028 154.119Z" fill="#40867D"/>
<path d="M52.5066 124.324C52.533 124.325 54.4195 124.339 54.4464 124.339H161.548L157.45 117.825H56.4527L52.5066 124.324Z" fill="#E6F2EA"/>
<path d="M48.0509 131.518L44.0079 138.032H169.992L165.949 131.518H48.0509Z" fill="#E6F2EA"/>
<path d="M107 53.8462L71.0824 154.119H107V53.8462Z" fill="#B5C99E"/>
<path d="M37.0604 153.771C36.5031 153.771 35.9479 153.545 35.544 153.099L27.5294 144.251C26.7712 143.414 26.835 142.121 27.6721 141.362C28.5092 140.604 29.8022 140.668 30.5608 141.505L38.5754 150.353C39.3336 151.19 39.2697 152.484 38.4327 153.242C38.041 153.596 37.5498 153.771 37.0604 153.771ZM178.456 153.099L186.471 144.251C187.229 143.414 187.165 142.12 186.328 141.362C185.491 140.604 184.198 140.667 183.439 141.505L175.425 150.353C174.666 151.19 174.73 152.483 175.567 153.242C175.959 153.596 176.45 153.771 176.94 153.771C177.497 153.771 178.052 153.545 178.456 153.099ZM147.143 153.099L155.158 144.251C155.916 143.414 155.852 142.12 155.015 141.362C154.179 140.604 152.885 140.667 152.127 141.505L144.112 150.353C143.354 151.19 143.418 152.483 144.255 153.242C144.646 153.596 145.137 153.771 145.627 153.771C146.185 153.771 146.74 153.545 147.143 153.099Z" fill="#8E6049"/>
<path d="M184.684 146.355H180.194C179.744 146.355 179.379 145.99 179.379 145.541C179.379 145.091 179.744 144.726 180.194 144.726H183.102L107 38.2141L30.8983 144.727H34.2858C34.7356 144.727 35.0999 145.091 35.0999 145.541C35.0999 145.991 34.7356 146.356 34.2858 146.356H29.3154C29.0105 146.356 28.7308 146.185 28.5911 145.914C28.4515 145.642 28.4753 145.316 28.6528 145.068L106.337 36.3409C106.642 35.9131 107.356 35.9131 107.662 36.3409L185.346 145.068C185.523 145.316 185.547 145.642 185.408 145.914C185.268 146.184 184.989 146.355 184.684 146.355Z" fill="#BFBCAF"/>
<path d="M71.082 154.119L100.657 71.5522C100.657 71.5522 76.0616 122.828 54.6545 138.751C54.6545 138.751 60.7681 154.119 71.082 154.119Z" fill="#E8E5DF"/>
<path d="M153.643 146.356H147.914C147.464 146.356 147.099 145.991 147.099 145.541C147.099 145.091 147.464 144.726 147.914 144.726H152.407L106.252 37.1351C106.074 36.7219 106.265 36.243 106.679 36.0659C107.092 35.8892 107.571 36.08 107.748 36.4932L154.391 145.22C154.499 145.472 154.474 145.761 154.323 145.99C154.172 146.218 153.916 146.356 153.643 146.356Z" fill="#E5E4DF"/>
</svg>
