<svg width="218" height="218" viewBox="0 0 218 218" fill="none" xmlns="http://www.w3.org/2000/svg">
<circle cx="109" cy="109" r="109" fill="#68A67D"/>
<path d="M192.875 73.4071C192.372 72.7228 191.971 71.9814 191.553 71.2444C191.342 70.8759 191.123 70.514 190.913 70.1455C190.678 69.7274 190.454 69.3017 190.233 68.8793C189.834 68.1225 189.455 67.358 189.037 66.6121C188.578 65.7926 188.133 64.9665 187.665 64.1514C186.73 62.5299 185.785 60.9184 184.885 59.2771C184.002 57.6689 183.152 56.0419 182.258 54.4403C181.78 53.5856 181.323 52.7187 180.876 51.8464C180.799 51.6968 180.72 51.5461 180.642 51.3965C181.005 50.7398 181.358 50.0775 181.729 49.4241C182.695 47.7279 183.751 46.0844 184.645 44.3475C184.747 44.1539 184.844 43.957 184.942 43.7612C185.055 43.5323 185.103 43.2991 185.035 43.0461C184.97 42.8151 184.816 42.6149 184.609 42.4928C184.472 42.4125 184.308 42.3729 184.142 42.3729C183.819 42.3729 183.491 42.5258 183.345 42.8272C182.898 43.7579 182.428 44.6753 181.93 45.5806C181.482 46.3979 181.015 47.2065 180.563 48.0238C180.52 48.1019 180.477 48.18 180.435 48.2581C180.425 47.8654 180.411 47.4727 180.418 47.0789C180.442 45.6928 180.473 44.3068 180.464 42.9174C180.463 42.418 180.052 42 179.549 42C179.053 42 178.625 42.418 178.632 42.9174C178.652 44.2881 178.665 45.6576 178.682 47.0261C178.684 47.212 178.7 47.3979 178.703 47.5849C178.59 47.3583 178.48 47.1295 178.364 46.9039C177.927 46.0492 177.496 45.1912 177.075 44.3255C176.92 44.012 176.766 43.6952 176.61 43.3816C176.459 43.0857 176.137 42.9306 175.816 42.9306C175.654 42.9306 175.491 42.9702 175.352 43.0516C174.907 43.3134 174.791 43.8646 175.024 44.309C175.463 45.1571 175.901 46.0074 176.364 46.8412C176.818 47.6586 177.277 48.4715 177.701 49.3064C178.046 49.9829 178.39 50.6595 178.737 51.336C178.422 51.908 178.102 52.4756 177.792 53.0509C177.364 53.8463 176.966 54.6548 176.599 55.4809C176.22 56.329 175.821 57.1662 175.389 57.9901C174.948 58.8382 174.505 59.6841 174.078 60.54C173.667 61.3639 173.256 62.19 172.831 63.0073C172.396 63.8489 171.952 64.686 171.484 65.5077C171.03 66.3096 170.567 67.105 170.115 67.908C169.687 68.667 169.3 69.4447 168.87 70.2005C168.659 70.5712 168.455 70.9419 168.259 71.3203C168.068 71.691 167.895 72.0683 167.709 72.439C167.64 72.5787 167.563 72.7118 167.481 72.8427C167.385 72.9901 167.364 73.1584 167.373 73.3257C167.153 73.5017 167 73.7613 167 74.0561C167 74.5709 167.426 74.9977 167.939 74.9999C168.911 75.0021 169.882 74.9647 170.855 74.9581C171.368 74.9559 171.88 74.9581 172.396 74.9581C172.846 74.9603 173.296 74.9603 173.747 74.9581C174.723 74.9559 175.701 74.9625 176.678 74.9339C177.586 74.9053 178.494 74.8987 179.402 74.8877C180.352 74.8767 181.305 74.8811 182.255 74.8591C183.236 74.8371 184.213 74.7997 185.192 74.7876C185.692 74.781 186.194 74.7898 186.694 74.7986C187.093 74.8074 187.49 74.814 187.888 74.8118C188.797 74.8096 189.708 74.8096 190.617 74.8162C191.067 74.8184 191.517 74.8118 191.965 74.8074C192.044 74.8074 192.116 74.7799 192.189 74.7612C192.213 74.759 192.235 74.7513 192.259 74.7469C192.288 74.737 192.318 74.7304 192.345 74.7172C192.415 74.6963 192.489 74.6842 192.553 74.6457C192.755 74.528 192.906 74.3322 192.968 74.1056C193.025 73.8911 193.012 73.5941 192.875 73.4071ZM169.37 73.1331C169.358 73.1331 169.346 73.1331 169.334 73.1331C169.406 72.9736 169.476 72.813 169.554 72.6568C169.75 72.2641 169.95 71.8747 170.159 71.4886C170.576 70.7175 170.992 69.9431 171.396 69.1653C171.812 68.3678 172.263 67.5868 172.711 66.8069C173.179 65.9917 173.631 65.1656 174.074 64.3351C174.942 62.7136 175.72 61.0416 176.566 59.4069C177.018 58.5324 177.463 57.659 177.87 56.7646C178.068 56.3312 178.255 55.8945 178.451 55.4633C178.573 55.196 178.714 54.9364 178.851 54.6757C178.85 54.9617 178.848 55.2466 178.85 55.5326C178.859 56.4302 178.861 57.329 178.841 58.2288C178.804 60.0923 178.813 61.9623 178.628 63.8203C178.615 63.9435 178.601 64.0645 178.586 64.1855C178.421 65.2173 178.111 66.1996 177.723 67.1666C177.301 68.1357 176.839 69.085 176.344 70.0201C176.105 70.4711 175.826 70.8968 175.573 71.339C175.316 71.7812 175.103 72.252 174.822 72.6799C174.727 72.8262 174.705 72.9923 174.711 73.1585C172.932 73.153 171.151 73.1573 169.37 73.1331ZM180.709 73.0869C179.774 73.0869 178.839 73.0825 177.904 73.1001C177.486 73.1078 177.068 73.1221 176.65 73.1342C176.954 72.5259 177.254 71.9154 177.567 71.3126C177.976 70.5305 178.391 69.7494 178.77 68.9497C179.038 68.3843 179.282 67.8079 179.51 67.2249C179.862 68.1269 180.25 69.0146 180.707 69.8749C181.081 70.5789 181.478 71.2697 181.874 71.9583C182.087 72.3257 182.297 72.6953 182.513 73.0616C181.91 73.0726 181.31 73.088 180.709 73.0869ZM186.342 72.989C185.734 72.9945 185.126 73.011 184.52 73.0253C184.281 72.626 184.029 72.2399 183.796 71.8373C183.524 71.3665 183.255 70.8935 182.983 70.4249C182.453 69.5096 181.979 68.5768 181.558 67.6088C181.147 66.5439 180.805 65.4593 180.465 64.3703C180.433 64.2691 180.387 64.1756 180.328 64.0931C180.359 63.8588 180.402 63.6267 180.421 63.3891C180.495 62.5233 180.508 61.6565 180.504 60.7886C180.501 59.8975 180.537 59.0054 180.561 58.1166C180.585 57.2278 180.607 56.3378 180.639 55.449C180.644 55.3005 180.651 55.152 180.657 55.0035C180.984 55.5887 181.313 56.1717 181.629 56.7625C182.066 57.5798 182.499 58.3971 182.943 59.2122C183.838 60.8579 184.766 62.4859 185.691 64.1184C186.587 65.7035 187.479 67.2964 188.292 68.9266C188.697 69.7351 189.1 70.5415 189.553 71.3269C189.87 71.8747 190.174 72.4313 190.483 72.9846C190.022 72.9824 189.562 72.978 189.103 72.978C188.181 72.9758 187.261 72.9802 186.342 72.989Z" fill="#F5EFE7"/>
<path d="M105.432 101.159H96.9318C96.6894 99.7652 96.2424 98.5303 95.5909 97.4545C94.9394 96.3636 94.1288 95.4394 93.1591 94.6818C92.1894 93.9242 91.0833 93.3561 89.8409 92.9773C88.6136 92.5833 87.2879 92.3864 85.8636 92.3864C83.3333 92.3864 81.0909 93.0227 79.1364 94.2955C77.1818 95.553 75.6515 97.4015 74.5455 99.8409C73.4394 102.265 72.8864 105.227 72.8864 108.727C72.8864 112.288 73.4394 115.288 74.5455 117.727C75.6667 120.152 77.197 121.985 79.1364 123.227C81.0909 124.455 83.3258 125.068 85.8409 125.068C87.2348 125.068 88.5379 124.886 89.75 124.523C90.9773 124.144 92.0758 123.591 93.0455 122.864C94.0303 122.136 94.8561 121.242 95.5227 120.182C96.2045 119.121 96.6742 117.909 96.9318 116.545L105.432 116.591C105.114 118.803 104.424 120.879 103.364 122.818C102.318 124.758 100.947 126.47 99.25 127.955C97.553 129.424 95.5682 130.576 93.2955 131.409C91.0227 132.227 88.5 132.636 85.7273 132.636C81.6364 132.636 77.9848 131.689 74.7727 129.795C71.5606 127.902 69.0303 125.167 67.1818 121.591C65.3333 118.015 64.4091 113.727 64.4091 108.727C64.4091 103.712 65.3409 99.4242 67.2045 95.8636C69.0682 92.2879 71.6061 89.553 74.8182 87.6591C78.0303 85.7651 81.6667 84.8182 85.7273 84.8182C88.3182 84.8182 90.7273 85.1818 92.9545 85.9091C95.1818 86.6364 97.1667 87.7045 98.9091 89.1136C100.652 90.5076 102.083 92.2197 103.205 94.25C104.341 96.2652 105.083 98.5682 105.432 101.159ZM119.381 85.4545L131.494 122.091H131.972L144.062 85.4545H153.335L136.926 132H126.517L110.131 85.4545H119.381ZM188.148 100.318C187.769 99.0909 187.246 97.9924 186.58 97.0227C185.928 96.0379 185.14 95.197 184.216 94.5C183.307 93.803 182.261 93.2803 181.08 92.9318C179.898 92.5682 178.61 92.3864 177.216 92.3864C174.716 92.3864 172.489 93.0152 170.534 94.2727C168.58 95.5303 167.042 97.3788 165.92 99.8182C164.814 102.242 164.261 105.197 164.261 108.682C164.261 112.197 164.814 115.174 165.92 117.614C167.027 120.053 168.564 121.909 170.534 123.182C172.504 124.439 174.792 125.068 177.398 125.068C179.761 125.068 181.807 124.614 183.534 123.705C185.277 122.795 186.617 121.508 187.557 119.841C188.496 118.159 188.966 116.189 188.966 113.932L190.875 114.227H178.239V107.636H197.125V113.227C197.125 117.212 196.277 120.659 194.58 123.568C192.883 126.477 190.549 128.72 187.58 130.295C184.61 131.856 181.201 132.636 177.352 132.636C173.064 132.636 169.299 131.674 166.057 129.75C162.83 127.811 160.307 125.061 158.489 121.5C156.686 117.924 155.784 113.682 155.784 108.773C155.784 105.015 156.314 101.659 157.375 98.7045C158.451 95.75 159.951 93.2424 161.875 91.1818C163.799 89.1061 166.057 87.5303 168.648 86.4545C171.239 85.3636 174.057 84.8182 177.102 84.8182C179.678 84.8182 182.08 85.197 184.307 85.9545C186.534 86.697 188.511 87.7576 190.239 89.1364C191.981 90.5152 193.413 92.1515 194.534 94.0455C195.655 95.9394 196.39 98.0303 196.739 100.318H188.148Z" fill="#FFFEF2"/>
</svg>
