<svg width="380" height="57" viewBox="0 0 380 57" fill="none" xmlns="http://www.w3.org/2000/svg">
<rect width="380" height="57" rx="8" fill="#03C75A"/>
<path d="M20 38V18H26.7262L34.6333 28.6801V18H41V38H34.6333L26.7262 26.9169V38H20Z" fill="white" stroke="white"/>
<path d="M152.674 22.878H154.15V32.418H152.674V22.878ZM152.674 31.986H153.718C155.608 31.986 157.372 31.896 159.424 31.482L159.622 32.76C157.498 33.192 155.68 33.282 153.718 33.282H152.674V31.986ZM164.284 21.132H165.724V37.404H164.284V21.132ZM157.192 26.586H161.26V27.828H157.192V26.586ZM160.846 21.51H162.25V36.576H160.846V21.51ZM180.267 21.114H181.761V37.422H180.267V21.114ZM173.175 22.374C175.587 22.374 177.315 24.588 177.315 28.044C177.315 31.518 175.587 33.732 173.175 33.732C170.781 33.732 169.053 31.518 169.053 28.044C169.053 24.588 170.781 22.374 173.175 22.374ZM173.175 23.724C171.591 23.724 170.475 25.416 170.475 28.044C170.475 30.69 171.591 32.418 173.175 32.418C174.777 32.418 175.875 30.69 175.875 28.044C175.875 25.416 174.777 23.724 173.175 23.724ZM196.933 21.114H198.409V37.422H196.933V21.114ZM192.631 27.162H197.365V28.386H192.631V27.162ZM185.665 22.41H187.141V26.64H191.659V22.41H193.135V33.336H185.665V22.41ZM187.141 27.828V32.094H191.659V27.828H187.141ZM206.638 34.164H221.38V35.406H206.638V34.164ZM213.226 30.672H214.72V34.686H213.226V30.672ZM208.42 22.338H219.562V27.27H209.95V30.528H208.474V26.064H218.086V23.544H208.42V22.338ZM208.474 29.898H219.94V31.122H208.474V29.898ZM224.781 22.86H235.257V24.066H224.781V22.86ZM223.197 33.786H237.903V35.028H223.197V33.786ZM234.465 22.86H235.923V24.48C235.923 26.568 235.923 28.89 235.311 32.4L233.817 32.256C234.465 28.926 234.465 26.496 234.465 24.48V22.86ZM251.581 21.15H253.093V33.03H251.581V21.15ZM242.635 35.82H253.579V37.044H242.635V35.82ZM242.635 31.806H244.111V36.234H242.635V31.806ZM244.363 22.266C246.793 22.266 248.593 23.922 248.593 26.28C248.593 28.62 246.793 30.294 244.363 30.294C241.933 30.294 240.115 28.62 240.115 26.28C240.115 23.922 241.933 22.266 244.363 22.266ZM244.363 23.562C242.779 23.562 241.573 24.678 241.573 26.28C241.573 27.864 242.779 28.98 244.363 28.98C245.947 28.98 247.153 27.864 247.153 26.28C247.153 24.678 245.947 23.562 244.363 23.562Z" fill="white"/>
</svg>
